<svg width="1600" height="1200" xmlns="http://www.w3.org/2000/svg">

 <g>
  <title>background</title>
  <rect fill="#518cc4" id="canvas_background" height="1202" width="1602" y="-1" x="-1"/>
 </g>
 <g>
  <title>Layer 1</title>
  <path stroke="null" id="svg_1" fill="#ffffff" d="m1440.33948,604.56419c0,-322.84528 -269.81964,-584.56244 -602.65898,-584.56244c-332.84023,0 -602.65987,261.71715 -602.65987,584.56244c0,291.7713 220.3836,533.60705 508.49401,577.46035l0,-408.48564l-153.01874,0l0,-168.97471l153.01874,0l0,-128.78635c0,-146.50646 89.97254,-227.43121 227.63317,-227.43121c65.93649,0 134.90452,11.41694 134.90452,11.41694l0,143.85709l-75.99425,0c-74.86515,0 -98.21173,45.06067 -98.21173,91.28931l0,109.65421l167.14357,0l-26.71977,168.97471l-140.42468,0l0,408.48564c288.11041,-43.85329 508.49401,-285.68905 508.49401,-577.46035"/>
 </g>
</svg>