<svg width="1600" height="1200" xmlns="http://www.w3.org/2000/svg">

 <g>
  <title>background</title>
  <rect fill="#518cc4" id="canvas_background" height="1202" width="1602" y="-1" x="-1"/>
 </g>
 <g>
  <title>Layer 1</title>
  <g stroke="null" id="svg_1">
   <g stroke="null" id="gmail">
    <path stroke="null" fill="#ffffff" id="svg_2" d="m1383.87495,30.99838l-1169.66172,0c-80.41424,0 -146.20772,63.90332 -146.20772,142.00738l0,852.04427c0,78.10406 65.79347,142.00738 146.20772,142.00738l1169.66172,0c80.41424,0 146.20772,-63.90332 146.20772,-142.00738l0,-852.04427c0,-78.10406 -65.79347,-142.00738 -146.20772,-142.00738zm0,994.05165l-146.20772,0l0,-624.83246l-438.62315,269.81402l-438.62315,-269.81402l0,624.83246l-146.20772,0l0,-852.04427l87.72463,0l497.10623,298.21549l497.10623,-298.21549l87.72463,0l0,852.04427z"/>
   </g>
  </g>
  <g id="svg_3"/>
  <g id="svg_4"/>
  <g id="svg_5"/>
  <g id="svg_6"/>
  <g id="svg_7"/>
  <g id="svg_8"/>
  <g id="svg_9"/>
  <g id="svg_10"/>
  <g id="svg_11"/>
  <g id="svg_12"/>
  <g id="svg_13"/>
  <g id="svg_14"/>
  <g id="svg_15"/>
  <g id="svg_16"/>
  <g id="svg_17"/>
 </g>
</svg>