<svg width="2500" height="2500" xmlns="http://www.w3.org/2000/svg">

 <g>
  <title>background</title>
  <rect x="-1" y="-1" width="2502" height="2502" id="canvas_background" fill="#518cc4"/>
 </g>
 <g>
  <title>Layer 1</title>
  <path stroke="null" d="m847.28637,1216.6647c0,-214.76843 180.27305,-388.91836 402.71196,-388.91836s402.80862,174.14993 402.80862,388.91836s-180.36972,388.91836 -402.80862,388.91836s-402.71196,-174.14993 -402.71196,-388.91836m-217.75059,0c0,330.86527 277.78038,599.06681 620.46254,599.06681s620.46254,-268.20154 620.46254,-599.06681s-277.78038,-599.06681 -620.46254,-599.06681s-620.46254,268.20154 -620.46254,599.06681m1120.4885,-622.82004a144.9995,139.99941 0 1 0 145.0575,-139.94341l-0.058,0a145.06717,140.06474 0 0 0 -144.9995,139.94341m-988.19095,1572.45471c-117.80726,-5.17998 -181.83904,-24.12657 -224.39157,-40.13316c-56.41447,-21.20524 -96.66634,-46.46114 -138.98686,-87.2663s-68.5171,-79.63166 -90.38302,-134.10077c-16.58794,-41.06649 -36.21121,-102.9089 -41.56652,-216.65375c-5.85798,-122.97548 -7.02764,-159.91666 -7.02764,-471.47135s1.26633,-348.3932 7.02764,-471.47135c5.36498,-113.74485 25.13325,-175.46593 41.56652,-216.65375c21.96259,-54.4691 48.1205,-93.33294 90.38302,-134.1941s82.47572,-66.15439 138.98686,-87.2663c42.53319,-16.01593 106.5843,-34.96252 224.39157,-40.13316c127.36756,-5.65598 165.6281,-6.7853 488.165,-6.7853s360.8361,1.22266 488.31,6.7853c117.80726,5.17998 181.73271,24.26656 224.39157,40.13316c56.41447,21.11191 96.66634,46.46114 138.98686,87.2663s68.42043,79.725 90.38302,134.1941c16.58794,41.06649 36.21121,102.9089 41.56652,216.65375c5.85798,123.07815 7.02764,159.91666 7.02764,471.47135s-1.16966,348.3932 -7.02764,471.47135c-5.36498,113.74485 -25.08491,175.56859 -41.56652,216.65375c-21.96259,54.4691 -48.1205,93.33294 -90.38302,134.10077s-82.57238,66.06106 -138.98686,87.2663c-42.53319,16.01593 -106.5843,34.96252 -224.39157,40.13316c-127.36756,5.65598 -165.6281,6.7853 -488.31,6.7853s-360.8361,-1.12933 -488.165,-6.7853m-10.00497,-2109.23111c-128.63389,5.65598 -216.53259,25.34923 -293.29533,54.18911c-79.49839,29.78254 -146.7975,69.73837 -214.04827,134.56743s-108.5273,129.91012 -139.37352,206.66713c-29.8699,74.16235 -50.26649,158.98333 -56.12447,283.18147c-5.95465,124.39414 -7.31764,164.16331 -7.31764,480.99131s1.363,356.59716 7.31764,480.99131c5.85798,124.20748 26.25458,209.01912 56.12447,283.18147c30.84623,76.71034 72.13242,141.86607 139.37352,206.66713s134.54987,104.70089 214.04827,134.56743c76.90774,28.83988 164.66144,48.53313 293.29533,54.18911c128.90456,5.65598 170.02642,7.0653 498.16996,7.0653s369.33307,-1.31599 498.16996,-7.0653c128.64356,-5.65598 216.48426,-25.34923 293.29533,-54.18911c79.45006,-29.86654 146.7975,-69.73837 214.04827,-134.56743s108.4403,-129.95679 139.37352,-206.66713c29.8699,-74.16235 50.36316,-158.98333 56.12447,-283.18147c5.85798,-124.48748 7.22098,-164.16331 7.22098,-480.99131s-1.363,-356.59716 -7.22098,-480.99131c-5.85798,-124.20748 -26.25458,-209.06579 -56.12447,-283.18147c-30.93323,-76.71034 -72.22909,-141.7354 -139.37352,-206.66713s-134.59821,-104.78489 -213.9516,-134.56743c-76.90774,-28.83988 -164.7581,-48.62646 -293.29533,-54.18911c-128.83689,-5.65598 -170.02642,-7.0653 -498.16996,-7.0653s-369.36207,1.31599 -498.26663,7.0653" fill="#ffffff" id="svg_1"/>
 </g>
</svg>