<svg width="1600" height="1200" xmlns="http://www.w3.org/2000/svg">

 <g>
  <title>background</title>
  <rect fill="#518cc4" id="canvas_background" height="1202" width="1602" y="-1" x="-1"/>
 </g>
 <g>
  <title>Layer 1</title>
  <path stroke="null" id="svg_1" d="m1518.43153,1128.52992a22.74218,22.0381 0 0 0 22.93169,-23.30529c0,-16.52858 -10.29083,-24.42556 -31.40315,-24.42556l-34.11326,0l0,86.53628l12.83038,0l0,-37.72189l15.76791,0l0.36008,0.45913l24.46679,37.26276l13.72111,0l-26.32407,-38.56668l1.76252,-0.23875zm-14.83927,-8.66832l-14.87717,0l0,-29.25558l18.85705,0c9.74123,0 20.84699,1.54267 20.84699,13.90237c0,14.21458 -11.23842,15.35321 -24.90268,15.35321m-319.77394,-99.77751l-181.9374,0l0,-276.1007c0,-65.83883 -1.21292,-150.5937 -94.6264,-150.5937c-94.75906,0 -109.2572,71.73402 -109.2572,145.80041l0,280.87562l-181.9374,0l0,-567.77499l174.65991,0l0,77.59249l2.44478,0a191.41331,185.48736 0 0 1 172.32883,-91.71524c184.40114,0 218.40069,117.53655 218.40069,270.44425l-0.07581,311.47185zm-773.04444,-645.4042a105.58055,102.31189 0 1 1 105.5616,-102.33026a105.58055,102.31189 0 0 1 -105.5616,102.33026m90.9687,645.4042l-182.12692,0l0,-567.79335l182.12692,0l0,567.79335zm772.77912,-1013.75273l-1046.32958,0a89.60417,86.83012 0 0 0 -90.60862,85.76495l0,1018.14198a89.66103,86.88522 0 0 0 90.60862,85.85678l1046.32958,0a89.85054,87.06887 0 0 0 90.9687,-85.85678l0,-1018.21544a89.79369,87.01378 0 0 0 -90.9687,-85.76495" fill="#ffffff"/>
  <path id="svg_2" d="m72.164,56.4114a4.418,4.418 0 1 0 0.085,0l-0.085,0m0,8.33a3.874,3.874 0 1 1 3.809,-3.938l0,0.065a3.791,3.791 0 0 1 -3.708,3.871l-0.1,0" fill="#0a66c2"/>
 </g>
</svg>