<svg width="1600" height="1200" xmlns="http://www.w3.org/2000/svg" xmlns:xlink="http://www.w3.org/1999/xlink">
 <defs>
  <filter id="c" filterUnits="objectBoundingBox" height="1.11" width="1.112" y="-0.062" x="-0.056">
   <feGaussianBlur stdDeviation="2"/>
  </filter>
  <filter id="d" filterUnits="objectBoundingBox" height="1.162" width="1.164" y="-0.088" x="-0.082">
   <feGaussianBlur stdDeviation="12.5"/>
  </filter>
  <path id="e" d="m576.337,707.516c-0.018,-49.17 12.795,-97.167 37.15,-139.475l-39.487,-144.561l147.548,38.792c40.652,-22.23 86.423,-33.944 133.002,-33.962l0.12,0c153.395,0 278.265,125.166 278.33,278.98c0.025,74.548 -28.9,144.642 -81.446,197.373c-52.554,52.73 -122.434,81.784 -196.884,81.817c-153.42,0 -278.272,-125.146 -278.333,-278.964z"/>
 </defs>
 <g>
  <title>background</title>
  <rect fill="#518cc4" id="canvas_background" height="1202" width="1602" y="-1" x="-1"/>
 </g>
 <g>
  <title>Layer 1</title>
  <g stroke="null" id="svg_3" fill-rule="evenodd" fill="none">
   <g stroke="null" id="svg_4" filter="url(#c)" fill-rule="nonzero" fill="#000" transform="matrix(1.765684723854065,0,0,-1.771694302558899,-1068.721417625436,1685.2592644507497) ">
    <use fill="#ffffff" stroke="#000000" x="226.27521" y="-84.13271" id="svg_5" height="100%" width="100%" xlink:href="#e" filter="url(#d)"/>
    <use fill="#ffffff" stroke="#000000" x="226.27521" y="-84.13271" id="svg_6" height="100%" width="100%" xlink:href="#e" fill-opacity="0.2"/>
   </g>
   <path stroke="#000000" id="svg_7" d="m366.07435,575.66786c-0.02472,83.78342 21.79208,165.59318 63.28037,237.70114l-67.24963,246.38598l251.28166,-66.11254c69.23073,37.86111 147.17688,57.8405 226.50557,57.86885l0.21188,0c261.23305,0 473.88506,-213.30491 473.99277,-475.47314c0.05297,-127.04288 -49.20963,-246.49937 -138.71043,-336.37034c-89.4849,-89.87097 -208.49911,-139.38982 -335.3,-139.44652c-261.26484,0 -473.90625,213.28719 -474.01219,475.44834" fill="#518cc4" fill-rule="nonzero"/>
   <path stroke="#000000" id="svg_8" d="m349.15026,575.5031c-0.03178,86.80593 22.57252,171.54252 65.53692,246.23538l-69.65979,255.21257l260.29548,-68.48307c71.71505,39.24303 152.45981,59.92579 234.63301,59.9559l0.21188,0c270.60884,0 490.89567,-220.9728 491.01044,-492.52038c0.04591,-131.61208 -50.98238,-255.35784 -143.68083,-348.45329c-92.71081,-93.09191 -215.98915,-144.38246 -347.32961,-144.4427c-270.65298,0 -490.90979,220.93737 -491.01926,492.49559l0.00176,0zm155.0077,233.37466l-9.71656,-15.48461c-40.85442,-65.18064 -62.42225,-140.50776 -62.38694,-217.85639c0.08652,-225.71208 183.15448,-409.33934 408.26868,-409.33934c109.01338,0.04429 211.46723,42.68011 288.52878,120.05532c77.05271,77.36989 119.45387,180.22737 119.42209,289.6171c-0.09535,225.71917 -183.17037,409.373 -408.10448,409.373l-0.15891,0c-73.24414,-0.03898 -145.07219,-19.77034 -207.71868,-57.07336l-14.90945,-8.86556l-154.46386,40.63381l41.23933,-151.05997z" fill="#ffffff" fill-rule="nonzero"/>
   <path stroke="#000000" id="svg_9" fill="#ffffff" d="m717.44738,369.6145c-9.19039,-20.4985 -18.86458,-20.91131 -27.60825,-21.27096c-7.15102,-0.3065 -15.3385,-0.28702 -23.51186,-0.28702c-8.17865,0 -21.47249,3.08275 -32.71284,15.40134c-11.24741,12.31859 -42.94498,42.09723 -42.94498,102.66437c0,60.57423 43.96731,119.09684 50.09601,127.3175c6.13399,8.21003 84.87646,136.47007 209.57618,185.8153c103.63863,41.00763 124.72797,32.85075 147.22279,30.79913c22.49482,-2.05162 72.5873,-29.77332 82.81061,-58.51906c10.22509,-28.7422 10.22509,-53.37761 7.15809,-58.52792c-3.06876,-5.13083 -11.24741,-8.20826 -23.51715,-14.3649c-12.27151,-6.15664 -72.5873,-35.94236 -83.83471,-40.04561c-11.24742,-4.10324 -19.42783,-6.15486 -27.60649,6.16904c-8.18041,12.31328 -31.67638,40.03321 -38.838,48.24324c-7.15632,8.22598 -14.31264,9.25179 -26.58415,3.09515c-12.26974,-6.17436 -51.784,-19.16088 -98.6594,-61.09688c-36.47198,-32.62752 -61.09269,-72.92294 -68.2543,-85.24684c-7.15632,-12.31328 -0.76455,-18.98194 5.38887,-25.11908c5.50893,-5.51529 12.2715,-14.36845 18.40549,-21.55798c6.12163,-7.18776 8.16806,-12.31859 12.25739,-20.52685c4.08932,-8.22066 2.04466,-15.4102 -1.02233,-21.56506c-3.067,-6.15664 -26.91081,-67.03737 -37.82097,-91.37691"/>
  </g>
 </g>
</svg>